<svg width="643" height="559" viewBox="0 0 643 559" fill="none" xmlns="http://www.w3.org/2000/svg">
<path opacity="0.05" d="M178.384 240.973C226.535 221.647 216.998 188.53 191.282 139.983C165.565 91.4364 164.705 40.0845 215.67 22.5516C266.634 5.01871 321.429 68.8384 378.725 69.2281C436.02 69.6177 432.347 9.46037 494.254 24.1101C556.162 38.7598 581.957 136.554 576.251 218.92C570.545 301.286 500.117 307.597 467.678 367.521C435.239 427.445 387.323 455.341 298.604 442.484C209.807 429.704 82.4742 422.691 83.8812 315.624C85.2882 208.556 130.234 260.376 178.384 240.973Z" fill="#0066B3"/>
<path opacity="0.05" d="M191.803 265.574C239.954 246.249 230.417 213.131 204.701 164.585C178.984 116.038 178.124 64.6861 229.089 47.1532C280.053 29.6203 334.848 93.44 392.143 93.8296C449.439 94.2192 445.766 34.0619 507.673 48.7116C569.581 63.3613 595.376 161.156 589.67 243.522C583.964 325.887 513.536 332.199 481.097 392.123C448.658 452.046 400.742 479.943 312.023 467.085C223.226 454.306 95.8931 447.293 97.3001 340.225C98.7071 233.158 143.653 284.977 191.803 265.574Z" fill="#0066B3"/>
<path d="M433 337.32L476.034 313L539.049 349.864L496.014 374.184L433 337.32Z" fill="#0066B3"/>
<path d="M496.014 374.183V380.417L539.048 356.097V349.863L496.014 374.183Z" fill="#00557F"/>
<path d="M433 343.554V337.32L496.014 374.185V380.418L433 343.554Z" fill="#02639E"/>
<path d="M394.332 174.227L577.886 280.787V116.456L394.332 10.8145V174.227Z" fill="#F5F7FC"/>
<path d="M586.753 112.067L404.931 7.24219L394.332 10.8146L577.886 116.456L586.753 112.067Z" fill="#DCDEE2"/>
<path d="M586.753 112.068L577.886 116.457V280.789L586.753 274.562V112.068Z" fill="#DCDEE2"/>
<path d="M442.63 177.02C450.115 174.058 452.394 162.052 447.719 150.203C443.044 138.355 433.186 131.152 425.7 134.115C418.214 137.077 415.936 149.083 420.611 160.931C425.286 172.78 435.144 179.983 442.63 177.02Z" stroke="#DCDEE2" stroke-width="8" stroke-miterlimit="10"/>
<path d="M419.607 157.694C423.175 169.84 432.551 178.822 440.603 177.597C448.654 176.372 452.323 165.553 448.858 153.407C445.291 141.26 435.914 132.278 427.863 133.503L430.513 131.768C438.564 130.543 448.043 139.525 451.508 151.672C455.075 163.818 451.406 174.637 443.252 175.862C435.201 177.087 425.723 168.105 422.257 155.958L419.607 157.694Z" stroke="#00557F" stroke-width="8" stroke-miterlimit="10" stroke-linecap="round" stroke-linejoin="round"/>
<path d="M427.863 133.502C435.914 132.278 445.393 141.26 448.858 153.406C452.425 165.552 448.756 176.371 440.603 177.596C432.551 178.821 423.073 169.839 419.607 157.693" stroke="#0066B3" stroke-width="8" stroke-miterlimit="10" stroke-linecap="round" stroke-linejoin="round"/>
<path d="M497.167 209.441V167.082L505.83 172.083V214.442" fill="#0066B3"/>
<path d="M525.806 225.874V190.762L534.469 195.763V230.977" fill="#0066B3"/>
<path d="M521.526 167.797V223.731L518.672 225.16V169.226L521.526 167.797Z" fill="#C9401B"/>
<path d="M510.111 220.157V164.223L518.672 169.224V225.158L510.111 220.157Z" fill="#F15A22"/>
<path d="M510.111 164.224L512.965 162.795L521.526 167.796L518.672 169.225L510.111 164.224Z" fill="#DD4C1F"/>
<path d="M412.983 92.6755L545.069 168.819V118.601L412.983 42.7637V92.6755Z" fill="white"/>
<path d="M419.2 63.074L507.664 113.904V109.515L419.2 58.7871V63.074Z" fill="#0066B3"/>
<path d="M419.2 78.0794L462.515 103.086V98.187L419.2 73.8945V78.0794Z" fill="#0066B3"/>
<path d="M521.118 144.934L518.468 143.301L518.977 116.049L521.525 117.58L521.118 144.934Z" fill="#F15A22"/>
<path d="M528.456 139.321L516.939 132.176V129.523L528.456 136.668C531.411 138.505 533.959 137.076 533.959 133.401C534.061 129.727 531.615 125.236 528.66 123.399L518.875 117.376V114.723L528.66 120.745C532.838 123.296 536.201 129.625 536.1 134.728C536.1 139.832 532.634 141.873 528.456 139.321Z" fill="#F15A22"/>
<path d="M528.354 144.221L516.735 137.076L516.837 134.422L528.354 141.669V144.221Z" fill="#F15A22"/>
<path d="M550.368 166.267L545.068 168.921V118.294L550.368 115.641V166.267Z" fill="#DCDEE2"/>
<path d="M412.983 42.7632L418.283 40.1094L550.368 115.641L545.068 118.294L412.983 42.7632Z" fill="#DCDEE2"/>
<path d="M421.239 103.699L422.156 102.168C422.156 102.168 422.156 94.8192 424.602 94.8192C427.048 94.8192 427.048 92.3695 429.494 94.8192C431.94 97.2689 431.94 99.7185 429.494 102.168C427.048 104.618 423.073 105.536 423.073 105.536L421.239 103.699Z" fill="#F9E0E3"/>
<path d="M385.771 247.717C388.217 250.167 385.058 255.577 382.612 257.312L372.827 264.253C369.464 266.702 367.018 267.417 363.757 264.763C362.024 263.436 361.718 259.864 363.757 257.414C366.407 254.352 366.203 253.944 368.139 253.229C370.891 252.209 383.325 245.268 385.771 247.717Z" fill="#0066B3"/>
<path d="M364.878 252.616V259.965C364.878 259.965 364.878 262.415 367.324 262.415C368.649 262.415 369.668 261.7 371.197 260.986C372.624 260.373 373.439 259.046 373.439 257.515V250.473L364.878 252.616Z" fill="#F15A22"/>
<path d="M361.718 241.491C363.859 243.634 361.107 248.228 358.967 249.759L350.508 255.781C347.552 257.924 345.514 258.537 342.66 256.291C341.131 255.066 340.825 252.004 342.66 249.963C344.902 247.309 344.8 247.003 346.431 246.39C348.877 245.37 359.578 239.348 361.718 241.491Z" fill="#0066B3"/>
<path d="M343.883 245.675V252.003C343.883 252.003 343.883 254.147 346.023 254.147C347.144 254.147 347.858 253.534 349.284 252.922C350.508 252.412 351.221 251.289 351.221 249.962V243.838L343.883 245.675Z" fill="#F15A22"/>
<path d="M341.641 170.656V246.8C341.641 248.637 343.067 250.066 344.8 250.168C349.386 250.474 357.336 250.168 357.336 244.963C357.336 237.614 357.336 192.703 357.336 192.703C357.336 192.703 357.336 190.254 359.986 190.254C362.636 190.254 362.636 192.703 362.636 192.703V250.985C362.636 253.536 363.859 255.884 365.897 257.313C367.12 258.129 368.649 258.742 370.483 258.742C370.585 258.742 370.585 258.742 370.687 258.742C374.968 258.742 378.331 255.067 378.331 250.78V173.106L341.641 170.656Z" fill="#00557F"/>
<path d="M356.317 97.8791L363.655 85.1205C363.655 85.1205 373.439 82.6708 373.439 90.0198C373.439 97.3688 373.439 99.8184 370.993 102.268C368.547 104.718 366.101 102.268 366.101 112.067C361.209 112.067 356.317 112.067 356.317 112.067V97.8791Z" fill="#F9E0E3"/>
<path d="M361.107 77.7723C356.215 80.222 348.877 82.6717 351.323 90.0206C353.769 97.3696 356.215 102.269 361.107 102.269C365.999 102.269 365.999 90.0206 370.891 87.571C375.783 85.1213 378.229 77.7723 375.783 77.7723C373.337 77.7723 365.999 75.3227 361.107 77.7723Z" fill="#003C54"/>
<path d="M361.107 107.065C361.107 107.065 348.877 104.616 343.985 114.414C341.539 119.314 341.539 121.763 341.539 131.562C341.539 141.361 339.093 170.654 339.093 170.654C339.093 170.654 346.431 175.554 363.553 175.554C380.675 175.554 383.121 175.554 383.121 175.554V124.213C383.121 124.213 400.244 126.663 405.136 124.213C410.028 121.763 424.704 107.065 424.704 107.065L419.812 102.166C419.812 102.166 410.028 114.414 400.244 114.414C390.459 114.414 378.229 111.965 378.229 111.965L361.107 107.065Z" fill="#0066B3"/>
<path d="M249.926 194.934C251.353 199.119 255.226 202.181 259.405 202.181C261.137 202.181 262.462 202.487 263.481 202.691C265.52 203.099 267.456 201.67 267.762 199.731L272.654 171.152L244.729 165.028C244.729 164.926 248.499 190.749 249.926 194.934Z" fill="#00557F"/>
<path d="M242.894 167.274C242.69 166.968 242.69 166.662 242.894 166.355C244.015 164.824 248.398 160.435 258.793 161.66C270.616 162.987 272.756 167.478 272.756 170.54C272.756 172.786 271.635 172.786 271.125 172.684C270.82 172.582 270.616 172.684 270.412 172.888L255.838 185.34C255.43 185.647 254.92 185.544 254.615 185.136L242.894 167.274Z" fill="#00557F"/>
<path d="M261.953 175.744L256.857 174.315C256.857 174.315 258.895 159.107 261.138 151.146C263.278 143.184 268.985 133.386 270.922 133.896C272.858 134.406 273.062 146.144 270.922 153.8C268.781 161.557 261.953 175.744 261.953 175.744Z" fill="#159360"/>
<path d="M260.832 175.643L255.736 174.214C255.736 174.214 257.774 159.006 260.016 151.044C262.157 143.083 267.864 133.284 269.801 133.795C271.737 134.305 271.941 146.043 269.801 153.698C267.66 161.557 260.832 175.643 260.832 175.643Z" fill="#19B97C"/>
<path d="M255.022 175.643L260.118 174.316C260.118 174.316 258.182 159.107 256.042 151.146C253.901 143.185 248.398 133.284 246.359 133.794C244.423 134.305 244.117 146.043 246.257 153.698C248.296 161.455 255.022 175.643 255.022 175.643Z" fill="#159360"/>
<path d="M254.003 175.643L259.099 174.316C259.099 174.316 257.163 159.107 255.023 151.146C252.882 143.185 247.379 133.284 245.34 133.794C243.404 134.305 243.098 146.043 245.238 153.698C247.379 161.353 254.003 175.643 254.003 175.643Z" fill="#19B97C"/>
<path d="M261.851 175.847H255.023C255.023 175.847 252.475 156.148 252.475 145.43C252.475 134.713 256.246 120.525 258.895 120.525C261.545 120.525 265.724 135.121 265.622 145.43C265.52 155.739 261.851 175.847 261.851 175.847Z" fill="#159360"/>
<path d="M260.73 175.847H253.901C253.901 175.847 251.354 156.148 251.354 145.43C251.354 134.713 255.124 120.525 257.774 120.525C260.424 120.525 264.603 135.121 264.501 145.43C264.399 155.739 260.73 175.847 260.73 175.847Z" fill="#19B97C"/>
<path d="M247.888 196.976C249.315 201.16 253.188 204.223 257.366 204.223C260.322 204.223 263.074 204.018 265.112 203.304C266.437 202.896 267.456 201.671 267.558 200.242L267.354 173.398L261.851 173.806C255.736 174.316 249.621 172.377 244.83 168.498L242.792 166.865C242.69 166.967 246.461 192.791 247.888 196.976Z" fill="#0066B3"/>
<path d="M257.774 188.708C259.013 188.708 260.017 187.702 260.017 186.462C260.017 185.222 259.013 184.217 257.774 184.217C256.536 184.217 255.532 185.222 255.532 186.462C255.532 187.702 256.536 188.708 257.774 188.708Z" fill="#F15A22"/>
<path d="M255.43 183.809L255.634 185.646L257.061 184.523L255.43 183.809Z" fill="#F15A22"/>
<path d="M260.118 183.809L259.915 185.646L258.386 184.523L260.118 183.809Z" fill="#F15A22"/>
<path d="M259.027 123.164C261.036 122.9 262.558 121.871 262.427 120.865C262.295 119.859 260.56 119.257 258.55 119.521C256.541 119.784 255.019 120.814 255.151 121.82C255.283 122.826 257.018 123.428 259.027 123.164Z" fill="#F15A22"/>
<path d="M255.443 399.179L245.353 393.871L240.461 269.551L250.551 274.756L255.443 399.179Z" fill="#C9401B"/>
<path d="M284.508 386.764L223.237 344.163L222.727 330.792L286.935 363.352C304.159 372.334 315.676 369.068 314.861 348.858C314.045 328.649 299.573 309.664 282.349 300.682L240.665 276.797L244.028 260.16L285.712 284.044C309.765 296.599 329.945 324.872 331.066 353.043C332.289 381.112 308.561 399.319 284.508 386.764Z" fill="#C9401B"/>
<path d="M278.68 398.362L224.358 369.986L223.95 358.146L278.272 386.522L278.68 398.362Z" fill="#C9401B"/>
<path d="M216.917 361.619L223.95 358.148L278.272 386.524L278.68 398.364L271.749 401.834L217.427 373.459L216.917 361.619Z" fill="#C9401B"/>
<path d="M248.716 405.713L255.442 399.181L245.353 393.873L248.716 405.713Z" fill="#C9401B"/>
<path d="M248.716 405.712L238.626 400.405L233.632 275.982L243.722 281.29L248.716 405.712Z" fill="#F15A22"/>
<path d="M278.782 385.298L216.51 350.697L215.898 336.305L278.17 370.907C295.394 379.889 308.949 375.602 308.134 355.392C307.319 335.182 292.846 316.197 275.622 307.215L233.938 283.331L233.326 268.939L275.011 292.824C299.063 305.378 319.243 333.651 320.364 361.822C321.587 389.891 302.732 397.853 278.782 385.298Z" fill="#F15A22"/>
<path d="M271.749 401.834L217.427 373.459L216.917 361.619L271.24 389.892L271.749 401.834Z" fill="#F15A22"/>
<path d="M243.009 259.549L233.327 268.837L259.825 284.616L263.189 271.062L243.009 259.549Z" fill="#C9401B"/>
<path d="M222.829 330.793L215.898 336.305L236.486 347.022L235.976 337.632L222.829 330.793Z" fill="#C9401B"/>
</svg>
